<?xml version="1.0" ?><!DOCTYPE svg  PUBLIC '-//W3C//DTD SVG 1.1//EN'  'http://www.w3.org/Graphics/SVG/1.1/DTD/svg11.dtd'><svg enable-background="new 0 0 128 128" id="Layer_1" version="1.1" viewBox="0 0 128 128" xml:space="preserve" xmlns="http://www.w3.org/2000/svg" xmlns:xlink="http://www.w3.org/1999/xlink"><g><g><g><g><path d="M81.982,114H46.003c-3.647,0-6.614-2.967-6.614-6.614V20.614c0-3.647,2.967-6.614,6.614-6.614h35.979      c3.647,0,6.614,2.967,6.614,6.614v86.772C88.596,111.033,85.629,114,81.982,114z M46.003,15.587      c-2.772,0-5.026,2.255-5.026,5.026v86.772c0,2.772,2.255,5.026,5.026,5.026h35.979c2.772,0,5.026-2.255,5.026-5.026V20.614      c0-2.772-2.255-5.026-5.026-5.026H46.003z" fill="#313638"/></g><g><path d="M85.554,101.443H42.432V26.575h43.122V101.443z M43.226,100.65H84.76v-73.28H43.226V100.65z" fill="#313638"/></g></g><g><g><path d="M67.696,21.654h-7.407c-0.51,0-0.926-0.415-0.926-0.926v-0.212c0-0.51,0.415-0.926,0.926-0.926h7.407      c0.51,0,0.926,0.415,0.926,0.926v0.212C68.622,21.239,68.207,21.654,67.696,21.654z M60.289,20.384      c-0.073,0-0.132,0.059-0.132,0.132v0.212c0,0.073,0.059,0.132,0.132,0.132h7.407c0.073,0,0.132-0.059,0.132-0.132v-0.212      c0-0.073-0.059-0.132-0.132-0.132H60.289z" fill="#313638"/></g></g><g><g><path d="M56.409,21.919c-0.714,0-1.296-0.582-1.296-1.296c0-0.715,0.582-1.297,1.296-1.297      c0.715,0,1.297,0.582,1.297,1.297C57.706,21.337,57.124,21.919,56.409,21.919z M56.409,20.12c-0.277,0-0.502,0.225-0.502,0.503      c0,0.277,0.225,0.502,0.502,0.502c0.278,0,0.503-0.225,0.503-0.502C56.912,20.345,56.687,20.12,56.409,20.12z" fill="#313638"/></g></g><g><g><path d="M63.993,110.923c-2.261,0-4.101-1.839-4.101-4.101s1.839-4.101,4.101-4.101s4.101,1.839,4.101,4.101      S66.254,110.923,63.993,110.923z M63.993,103.515c-1.823,0-3.307,1.484-3.307,3.307s1.484,3.307,3.307,3.307      c1.823,0,3.307-1.484,3.307-3.307S65.816,103.515,63.993,103.515z" fill="#313638"/></g></g><g><g><g><rect fill="#CBCBCB" height="4.563" width="1.321" x="39.003" y="26.269"/></g><g><rect fill="#313638" height="8.016" width="1.321" x="39.003" y="34.786"/></g><g><rect fill="#313638" height="8.286" width="1.321" x="39.003" y="43.648"/></g></g><g><rect fill="#313638" height="9.259" width="1.326" x="87.671" y="34.595"/></g></g></g></g></svg>
