<?xml version="1.0" ?><!DOCTYPE svg  PUBLIC '-//W3C//DTD SVG 1.1//EN'  'http://www.w3.org/Graphics/SVG/1.1/DTD/svg11.dtd'><svg enable-background="new 0 0 128 128" id="Layer_1" version="1.1" viewBox="0 0 128 128" xml:space="preserve" xmlns="http://www.w3.org/2000/svg" xmlns:xlink="http://www.w3.org/1999/xlink"><g><g><g><g><path d="M23.742,89.218c-0.315-0.53-0.483-1.139-0.483-1.759v-49.2c0-1.898,1.544-3.442,3.442-3.442h74.597      c1.898,0,3.442,1.544,3.442,3.442v49.2c0,0.613-0.163,1.215-0.473,1.742l-1.368-0.804c0.166-0.283,0.254-0.608,0.254-0.938      v-49.2c0-1.023-0.832-1.855-1.855-1.855H26.702c-1.023,0-1.855,0.832-1.855,1.855v49.2c0,0.335,0.09,0.661,0.259,0.947      L23.742,89.218z" fill="#313638"/></g><g><path d="M101.897,86.536H25.971V38.124h75.926V86.536z M26.765,85.743h74.339V38.917H26.765V85.743z" fill="#313638"/></g></g><g><g><g><path d="M107.915,93.183H19.908c-4.048,0-5.565-1.688-5.725-1.88L14,91.082v-2.016h1.587v1.385       c0.444,0.349,1.74,1.145,4.321,1.145h88.007c2.586,0,3.988-0.791,4.497-1.155v-0.945H114v1.635l-0.219,0.229       C113.711,91.435,112,93.183,107.915,93.183z" fill="#313638"/></g><g><path d="M15.587,90.796H14v-1.799c0-0.496,0.403-0.899,0.899-0.899H113.1c0.496,0,0.9,0.403,0.9,0.899v1.442       h-1.587v-0.753H15.587V90.796z" fill="#313638"/></g><g><path d="M69.192,90.772H58.444c-0.893,0-2.207-0.463-2.248-1.455h-0.001v-0.066h0.794       c0,0.4,0.8,0.728,1.455,0.728h10.747c0.378,0,1.135-0.322,1.176-0.765l0.79,0.074C71.065,90.276,69.847,90.772,69.192,90.772z" fill="#313638"/></g></g></g></g></g></svg>