<?xml version="1.0" ?><!DOCTYPE svg  PUBLIC '-//W3C//DTD SVG 1.1//EN'  'http://www.w3.org/Graphics/SVG/1.1/DTD/svg11.dtd'><svg enable-background="new 0 0 128 128" id="Layer_1" version="1.1" viewBox="0 0 128 128" xml:space="preserve" xmlns="http://www.w3.org/2000/svg" xmlns:xlink="http://www.w3.org/1999/xlink"><g><g><g><g><g><path d="M35.391,97.292c-0.199,0-0.39-0.066-0.549-0.192c-0.184-0.147-0.301-0.357-0.328-0.59l-0.551-4.832       l0.753-0.086l0.551,4.831c0.007,0.069,0.086,0.126,0.139,0.111l2.342-0.267c0.059-0.006,0.118-0.08,0.111-0.139l-0.314-2.75       l0.753-0.087l0.314,2.75c0.055,0.484-0.294,0.922-0.778,0.979l-2.342,0.267C35.458,97.29,35.425,97.292,35.391,97.292z" fill="#313638"/></g><g><path d="M36.71,102.233c-0.448,0-0.838-0.325-0.911-0.779l-0.723-4.484l0.747-0.12l0.723,4.484       c0.015,0.09,0.093,0.141,0.185,0.141l0.768-0.089c0.091-0.01,0.156-0.088,0.15-0.177l-0.236-4.546l0.755-0.039l0.236,4.54       c0.034,0.489-0.326,0.921-0.819,0.976l-0.767,0.088C36.782,102.231,36.746,102.233,36.71,102.233z" fill="#313638"/></g></g></g><g><g><g><path d="M43.91,98.453L43.91,98.453c-1.961,0-3.595-1.975-3.775-2.201L40,96.081l-4.617-41.079l0.096-0.196       c0.138-0.286,1.41-2.802,3.504-3.036c2.2-0.246,4.114,1.335,4.353,3.473L47.7,94.082c0.242,2.157-1.316,4.11-3.473,4.353       C44.121,98.447,44.016,98.453,43.91,98.453z M41.453,95.465c0.493,0.55,1.635,1.565,2.604,1.466       c1.329-0.15,2.287-1.352,2.139-2.68l-4.365-38.839c-0.148-1.317-1.339-2.283-2.68-2.139c-0.974,0.109-1.861,1.371-2.215,2.007       L41.453,95.465z" fill="#313638"/></g></g><g><g><path d="M41.156,96.207l-2.589-0.284c-0.293-0.034-0.52-0.264-0.555-0.561l-4.407-39.218       c-0.032-0.301,0.14-0.576,0.419-0.67l2.459-0.852L41.156,96.207z M38.754,95.182l1.544,0.17l-4.463-39.704l-1.467,0.508       L38.754,95.182z" fill="#313638"/></g></g><g><g><path d="M38.041,94.111l-5.141-2.657c-0.389-0.2-0.651-0.58-0.702-1.017L29.03,62.238       c-0.048-0.436,0.122-0.865,0.457-1.148l4.422-3.732l0.489,0.578l-4.422,3.732c-0.142,0.12-0.214,0.302-0.193,0.486       l3.169,28.198c0.021,0.184,0.131,0.346,0.296,0.431l5.141,2.657L38.041,94.111z" fill="#313638"/></g></g><g><g><path d="M33.028,91.024l-5.252-3.24c-0.514-0.319-0.865-0.841-0.961-1.431       c-0.323-2.008-0.941-7.25-1.358-11.162l0.753-0.081c0.416,3.904,1.031,9.128,1.352,11.122c0.061,0.374,0.284,0.705,0.612,0.908       l3.927,2.423l-2.753-24.497l-2.109,2.073l-0.53-0.54l3.217-3.163L33.028,91.024z" fill="#313638"/></g></g></g><g><path d="M28.745,78.807L28.745,78.807c-1,0-1.916-0.583-2.334-1.486l-4.375-9.424     c-0.12-0.26-0.159-0.523-0.117-0.763c-0.317-0.364-1.001-1.259-1.001-2.218v-4.121c0-0.43,0.247-0.861,0.679-1.185     c0.497-0.373,0.588-0.617,0.599-0.729c0.005-0.061-0.002-0.159-0.132-0.3l-0.331-0.41c-0.449-0.26-0.746-0.693-0.816-1.199     C18.438,38.99,35.421,25.309,37.365,23.808c0.314-0.243,0.797-0.198,1.066,0.102l1.77,1.967c0.147,0.163,0.22,0.38,0.201,0.597     c-0.02,0.217-0.128,0.417-0.299,0.551c-2.717,2.137-16.221,13.528-15.856,28.5l1.835,2.242c0.528,0.629,0.592,1.527,0.158,2.23     l-1.362,2.202c0.16,0.106,0.311,0.241,0.383,0.396l5.811,12.577c0.591,1.279,0.03,2.804-1.255,3.398     C29.479,78.729,29.117,78.807,28.745,78.807z M37.869,24.417c-1.95,1.465-18.623,14.893-16.204,32.453     c0.055,0.392,0.33,0.589,0.489,0.671l0.12,0.099l0.362,0.449c0.292,0.315,0.333,0.646,0.312,0.863     c-0.039,0.428-0.333,0.842-0.899,1.264c-0.232,0.174-0.375,0.396-0.375,0.58v4.121c0,0.906,0.927,1.842,0.936,1.852l0.188,0.188     l-0.113,0.241c-0.063,0.134,0.005,0.31,0.037,0.38l4.375,9.424c0.295,0.637,0.941,1.048,1.647,1.048l0,0     c0.263,0,0.517-0.056,0.757-0.167c0.905-0.418,1.301-1.491,0.884-2.393l-5.811-12.577c-0.031-0.035-0.222-0.156-0.382-0.228     l-0.394-0.176l1.799-2.909c0.263-0.425,0.225-0.968-0.096-1.349l-2.002-2.445l-0.004-0.129     c-0.458-15.399,13.365-27.064,16.141-29.246L37.869,24.417z" fill="#313638"/></g><g><g><g><path d="M84.09,98.453c-0.105,0-0.211-0.006-0.316-0.018c-2.157-0.243-3.716-2.196-3.473-4.353l4.365-38.839       c0.239-2.138,2.158-3.719,4.353-3.473c2.093,0.235,3.366,2.751,3.504,3.036l0.096,0.196l-4.616,41.079l-0.136,0.171       C87.685,96.478,86.051,98.453,84.09,98.453z M88.579,53.259c-1.236,0-2.272,0.925-2.41,2.153l-4.365,38.839       c-0.149,1.328,0.81,2.53,2.139,2.68c0.961,0.099,2.126-0.931,2.605-1.466l4.516-40.185c-0.364-0.656-1.239-1.897-2.215-2.007       C88.758,53.264,88.668,53.259,88.579,53.259z" fill="#313638"/></g></g><g><g><path d="M86.845,96.207l0.052-0.47l4.62-41.114l2.461,0.852c0.277,0.095,0.448,0.37,0.417,0.668l-4.407,39.219       c-0.035,0.298-0.262,0.528-0.554,0.562L86.845,96.207z M92.164,55.648l-4.462,39.704l1.543-0.17l4.386-39.027L92.164,55.648z" fill="#313638"/></g></g><g><g><path d="M89.958,94.111l-0.347-0.672l5.141-2.657c0.165-0.086,0.276-0.246,0.296-0.431l3.169-28.198       c0.021-0.184-0.051-0.366-0.192-0.485l-4.423-3.733l0.489-0.578l4.422,3.732c0.335,0.282,0.506,0.712,0.457,1.148       l-3.169,28.198c-0.049,0.436-0.311,0.817-0.702,1.018L89.958,94.111z" fill="#313638"/></g></g><g><g><path d="M94.972,91.024l3.102-27.588l3.277,3.222l-0.53,0.54l-2.169-2.132l-2.753,24.497l3.927-2.423       c0.328-0.203,0.551-0.534,0.612-0.909c0.31-1.924,0.938-7.192,1.365-11.173l0.753,0.081c-0.429,3.992-1.058,9.277-1.371,11.214       c-0.096,0.591-0.446,1.113-0.961,1.432L94.972,91.024z" fill="#313638"/></g></g></g><g><path d="M99.243,78.807L99.243,78.807c-0.372,0-0.732-0.079-1.072-0.236c-0.621-0.288-1.092-0.799-1.329-1.441     c-0.236-0.642-0.208-1.337,0.079-1.957l5.814-12.577c0.072-0.156,0.225-0.29,0.385-0.396l-1.362-2.202     c-0.435-0.704-0.371-1.602,0.161-2.234l1.832-2.238c0.366-14.973-13.138-26.364-15.856-28.5     c-0.171-0.134-0.279-0.334-0.299-0.551c-0.019-0.217,0.054-0.435,0.2-0.597l1.772-1.968c0.267-0.298,0.751-0.345,1.065-0.102     c1.945,1.5,18.929,15.177,16.449,33.164c-0.07,0.516-0.376,0.956-0.841,1.215l-0.446,0.416c-0.111,0.122-0.17,0.256-0.157,0.389     c0.018,0.191,0.184,0.422,0.446,0.619c0.39,0.293,0.376,0.715,0.366,1.022l-0.004,0.163v4.121c0,0.897-0.44,1.748-0.667,2.13     c0.128,0.211,0.299,0.516,0.146,0.85l-4.357,9.425C101.151,78.224,100.239,78.807,99.243,78.807z M90.171,24.408l-1.811,1.977     c2.779,2.228,16.603,13.893,16.144,29.293l-0.004,0.129l-1.999,2.441c-0.323,0.385-0.362,0.928-0.099,1.353l1.799,2.909     l-0.394,0.177c-0.162,0.072-0.354,0.192-0.395,0.245l-5.803,12.558c-0.203,0.437-0.223,0.926-0.056,1.379     c0.167,0.452,0.499,0.812,0.935,1.014c0.884,0.408,1.991-0.008,2.393-0.88l4.357-9.425h-0.001c-0.019,0-0.083-0.103-0.12-0.166     c-0.045-0.073-0.088-0.145-0.12-0.213l-0.096-0.199l0.126-0.181c0.007-0.01,0.663-0.961,0.663-1.903l0.004-4.309     c0.01-0.279-0.001-0.345-0.062-0.391c-0.257-0.192-0.696-0.597-0.747-1.155c-0.023-0.243,0.025-0.613,0.375-0.991l0.585-0.529     c0.16-0.083,0.435-0.279,0.489-0.671C108.755,39.304,92.081,25.88,90.171,24.408z" fill="#313638"/></g><g><g><path d="M86.357,27.537c-0.901,0-1.917-0.156-3.021-0.462c-2.493-0.694-6.69-2.119-10.312-3.853      c-2.755-1.32-7.338-1.29-7.852-1.29C64.495,21.938,63.755,22,63.251,22c-0.003,0-0.006,0-0.009,0      c-0.641,0-5.264-0.024-8.006,1.29c-3.583,1.715-7.814,3.113-10.349,3.819c-1.102,0.307-2.119,0.444-3.025,0.444      c-0.815,0-1.256-0.137-1.335-0.162c-0.606-0.196-1.382-0.704-1.804-1.178l-0.664-0.747c-0.343-0.383-0.768-0.963-0.92-1.325      c-0.275-0.665,0.184-1.425,0.76-1.883C38.324,21.92,48.486,14,64.623,14c14.553,0,25.259,7.926,25.708,8.263      c0.593,0.447,1.074,1.24,0.729,1.926c-0.169,0.337-0.604,0.909-0.928,1.275l-0.651,0.738c-0.422,0.477-1.195,0.985-1.801,1.181      C87.601,27.409,87.166,27.537,86.357,27.537z M65.173,20c0.895,0,5.513,0.248,8.506,1.681c3.532,1.692,7.629,3.171,10.064,3.848      c2.532,0.705,3.475,0.369,3.481,0.368c0.338-0.11,0.879-0.442,1.123-0.718l0.651-0.727c0.246-0.278,0.482-0.59,0.615-0.791      c-0.04-0.056-0.104-0.123-0.192-0.19c-0.105-0.079-10.767-7.957-24.798-7.957c-15.584,0-25.682,7.85-25.782,7.929      c-0.109,0.087-0.185,0.181-0.229,0.25c0.11,0.178,0.325,0.482,0.577,0.764l0.664,0.745c0.244,0.274,0.787,0.627,1.138,0.74l0,0      c0.002-0.001,0.969,0.376,3.49-0.325c2.476-0.689,6.607-2.262,10.101-3.935C57.575,20.248,62.255,20,63.163,20h0.106      c0.493,0,1.304,0,1.799,0H65.173z" fill="#313638"/></g></g></g><g><path d="M38.525,114l-1.512-0.071c0.252-5.416-0.61-11.954-0.619-12.019l1.5-0.201    C37.931,101.982,38.784,108.445,38.525,114z" fill="#313638"/></g></g></svg>